<svg xmlns="http://www.w3.org/2000/svg" xmlns:svg="http://www.w3.org/2000/svg" xmlns:xlink="http://www.w3.org/1999/xlink" id="svg2" width="10" height="7.6" version="1.1"><defs id="defs4"><linearGradient id="linearGradient3803"><stop style="stop-color:#555;stop-opacity:1" id="stop3805" offset="0"/><stop style="stop-color:#555;stop-opacity:1" id="stop3807" offset="1"/></linearGradient><linearGradient id="linearGradient3776"><stop style="stop-color:#060606;stop-opacity:1" id="stop3778" offset="0"/><stop style="stop-color:#161616;stop-opacity:1" id="stop3780" offset="1"/></linearGradient><linearGradient id="linearGradient3809-9" x1="6" x2="6" y1="1047.362" y2="1051.362" gradientTransform="matrix(1.2513863,0,0,1.6736067,-1.1312388,-707.65729)" gradientUnits="userSpaceOnUse" xlink:href="#linearGradient3803-4"/><linearGradient id="linearGradient3803-4"><stop style="stop-color:#030303;stop-opacity:1" id="stop3805-9" offset="0"/><stop style="stop-color:#0e0e0e;stop-opacity:1" id="stop3807-1" offset="1"/></linearGradient><linearGradient id="linearGradient3872-4" x1="6" x2="6" y1="1047.362" y2="1051.362" gradientTransform="matrix(1.1161866,0,0,1.3745157,-0.52284074,-393.56884)" gradientUnits="userSpaceOnUse" xlink:href="#linearGradient3803-7"/><linearGradient id="linearGradient3803-7"><stop style="stop-color:#555;stop-opacity:1" id="stop3805-2" offset="0"/><stop style="stop-color:#555;stop-opacity:1" id="stop3807-3" offset="1"/></linearGradient></defs><metadata id="metadata7"/><g id="layer1" transform="translate(0,-1044.7622)"><path id="path3775" d="m 1,1047.3622 9,0 -4.5,5 z" style="fill:#fff;fill-opacity:1;stroke:none"/><path id="path3758" style="fill:none;stroke:#000;stroke-width:2" d="m -42.730458,49.450203 100,0 -50.0000002,-86.60254 -49.9999998,86.60254 z"/><path d="m -42.730458,49.450203 100,0 -50.0000002,-86.60254 -49.9999998,86.60254 z" style="fill:none;stroke:#000;stroke-width:2" id="path3770"/><path id="path3784" style="fill:none;stroke:#000;stroke-width:2" d="m -42.730458,49.450203 100,0 -50.0000002,-86.60254 -49.9999998,86.60254 z"/><path style="opacity:0;fill:none;stroke:#000;stroke-width:1;stroke-linecap:butt;stroke-linejoin:round;stroke-miterlimit:4;stroke-opacity:0;stroke-dasharray:none;stroke-dashoffset:0" id="path3792" d="M 8.2479783,10.574124 3.3646268,7.554934 -1.8909562,9.8660976 -0.52857478,4.2887735 -4.3506865,0.00460586 1.374663,-0.42318038 4.268051,-5.3821052 6.4441302,-0.06916754 12.054454,1.150216 7.6739955,4.8615783 z" transform="translate(0,1039.3622)"/><path style="opacity:0;fill:none;stroke:#000;stroke-width:1;stroke-linecap:butt;stroke-linejoin:round;stroke-miterlimit:4;stroke-opacity:0;stroke-dasharray:none;stroke-dashoffset:0" id="path3794" d="M 8.0862536,6.4770889 5.0690271,4.8124131 1.9871953,6.3542021 2.6380218,2.9702361 0.21935491,0.51567889 3.6388143,0.08894861 5.2258277,-2.9698402 6.6883434,0.15039204 10.087839,0.71451384 7.5722636,3.0696537 z" transform="translate(0,1039.3622)"/><path style="fill:#212121;fill-opacity:1;stroke:none" id="path3005" d="m 1,1046.3622 9,0 -4.5,5 z"/></g></svg>