<svg xmlns="http://www.w3.org/2000/svg" xmlns:svg="http://www.w3.org/2000/svg" xmlns:xlink="http://www.w3.org/1999/xlink" id="svg3806" width="16" height="16" version="1.1"><defs id="defs3808"><linearGradient id="linearGradient4391"><stop style="stop-color:#000;stop-opacity:.08" id="stop4393" offset="0"/><stop style="stop-color:#000;stop-opacity:0" id="stop4395" offset="1"/></linearGradient><linearGradient id="linearGradient4381"><stop style="stop-color:#000;stop-opacity:.25" id="stop4383" offset="0"/><stop style="stop-color:#000;stop-opacity:.40000001" id="stop4385" offset="1"/></linearGradient><linearGradient id="linearGradient4352"><stop style="stop-color:#f5f5f5;stop-opacity:1" id="stop4354" offset="0"/><stop style="stop-color:#d9d9d9;stop-opacity:1" id="stop4356" offset="1"/></linearGradient><linearGradient id="linearGradient4342"><stop style="stop-color:#fff;stop-opacity:0" id="stop4344" offset="0"/><stop style="stop-color:#fff;stop-opacity:.5" id="stop4346" offset="1"/></linearGradient><linearGradient id="linearGradient4332"><stop style="stop-color:#000;stop-opacity:.06" id="stop4334" offset="0"/><stop style="stop-color:#000;stop-opacity:.02" id="stop4336" offset="1"/></linearGradient><linearGradient id="linearGradient4338" x1="9" x2="9" y1="2.545" y2="13.455" gradientUnits="userSpaceOnUse" xlink:href="#linearGradient4332"/><linearGradient id="linearGradient4348" x1="8" x2="8" y1=".462" y2="14.462" gradientUnits="userSpaceOnUse" xlink:href="#linearGradient4342"/><linearGradient id="linearGradient4387" x1="7.5" x2="7.5" y1="4" y2="8" gradientUnits="userSpaceOnUse" xlink:href="#linearGradient4381"/><linearGradient id="linearGradient4397" x1="8" x2="8" y1="1" y2="4.5" gradientUnits="userSpaceOnUse" xlink:href="#linearGradient4391"/></defs><metadata id="metadata3811"/><g id="layer1" transform="translate(0,-1036.3622)"><path id="path4340" d="M 15,8 A 7,7 0 1 1 1,8 7,7 0 1 1 15,8 z" transform="matrix(0.92857142,0,0,0.92857245,0.57142866,1037.9336)" style="fill:none;fill-opacity:1;stroke:url(#linearGradient4348);stroke-width:1.07692265999999992;stroke-opacity:1"/><path style="fill:#aacb88;fill-opacity:1;stroke:#666;stroke-width:1.07692265999999992;stroke-opacity:1" id="path4328" d="M 15,8 A 7,7 0 1 1 1,8 7,7 0 1 1 15,8 z" transform="matrix(0.92857142,0,0,0.92857245,0.57142862,1036.9336)"/><path style="fill:none;fill-opacity:1;stroke:url(#linearGradient4338);stroke-width:.90909094000000001;stroke-miterlimit:4;stroke-opacity:1;stroke-dasharray:none" id="path4330" d="M 14,8 A 5,5 0 1 1 4,8 5,5 0 1 1 14,8 z" transform="matrix(1.1,0,0,1.1,-1.9,1035.5622)"/><path style="fill:url(#linearGradient4397);fill-opacity:1;stroke:none" id="path4389" d="M 15,8 A 7,7 0 1 1 1,8 7,7 0 1 1 15,8 z" transform="matrix(0.85714286,0,0,0.8571449,1.1428571,1037.505)"/><path id="path4379" d="M 11,6 A 3.5,2 0 1 1 4,6 3.5,2 0 1 1 11,6 z" transform="matrix(1.1428571,0,0,2,-0.57142855,1032.3622)" style="fill:url(#linearGradient4387);fill-opacity:1;stroke:none"/><path style="fill:#f5f5f5;fill-opacity:1;stroke:none" id="path4350" d="M 11,6 A 3.5,2 0 1 1 4,6 3.5,2 0 1 1 11,6 z" transform="matrix(0.85714282,0,0,1.5,1.5714287,1035.3622)"/></g></svg>